<svg xmlns="http://www.w3.org/2000/svg" width="25" height="29" fill="none" viewBox="0 0 25 29"><path fill="#000" d="M17.5 17.2188C15.8984 17.2188 15.1283 18.125 12.5 18.125C9.87165 18.125 9.10714 17.2188 7.5 17.2188C3.35937 17.2188 0 20.6285 0 24.8312V26.2812C0 27.7822 1.19978 29 2.67857 29H22.3214C23.8002 29 25 27.7822 25 26.2812V24.8312C25 20.6285 21.6406 17.2188 17.5 17.2188ZM22.3214 26.2812H2.67857V24.8312C2.67857 22.1352 4.84375 19.9375 7.5 19.9375C8.31473 19.9375 9.63728 20.8438 12.5 20.8438C15.385 20.8438 16.6797 19.9375 17.5 19.9375C20.1562 19.9375 22.3214 22.1352 22.3214 24.8312V26.2812ZM12.5 16.3125C16.9364 16.3125 20.5357 12.6592 20.5357 8.15625C20.5357 3.65332 16.9364 0 12.5 0C8.06362 0 4.46429 3.65332 4.46429 8.15625C4.46429 12.6592 8.06362 16.3125 12.5 16.3125ZM12.5 2.71875C15.452 2.71875 17.8571 5.15996 17.8571 8.15625C17.8571 11.1525 15.452 13.5938 12.5 13.5938C9.54799 13.5938 7.14286 11.1525 7.14286 8.15625C7.14286 5.15996 9.54799 2.71875 12.5 2.71875Z"/></svg>